<svg
    width="128"
    height="128"
    viewBox="0 0 128 128"
    fill="none"
    xmlns="http://www.w3.org/2000/svg"
>
<rect width="128" height="128" fill="none" />
<path
        d="M109 89V85.1032C109.553 85.1032 110.175 85.0267 110.866 84.8739C111.557 84.7402 112.236 84.4728 112.904 84.0716C113.595 83.6705 114.159 83.0879 114.597 82.3238C115.035 81.5788 115.253 80.6046 115.253 79.4011V70.5473C115.253 69.4967 115.438 68.618 115.806 67.9112C116.175 67.1853 116.647 66.6027 117.223 66.1633C117.798 65.7049 118.374 65.3515 118.95 65.1032C119.549 64.8548 120.102 64.6734 120.608 64.5587C121.115 64.4441 121.461 64.3773 121.645 64.3582C121.461 64.2818 121.115 64.1958 120.608 64.1003C120.102 63.9857 119.549 63.8138 118.95 63.5845C118.374 63.3362 117.798 62.9924 117.223 62.553C116.647 62.0946 116.175 61.5119 115.806 60.8052C115.438 60.0793 115.253 59.2006 115.253 58.1691V48.5702C115.253 47.3477 115.035 46.3639 114.597 45.6189C114.159 44.8739 113.595 44.3104 112.904 43.9284C112.236 43.5272 111.557 43.2598 110.866 43.1261C110.175 42.9733 109.553 42.8968 109 42.8968V39C110.013 39 111.073 39.086 112.179 39.2579C113.284 39.4107 114.367 39.6781 115.426 40.0602C116.486 40.4422 117.43 40.9675 118.259 41.6361C119.111 42.3047 119.779 43.1547 120.263 44.1862C120.77 45.2178 121.023 46.4594 121.023 47.9112V56.8797C121.023 58.1786 121.334 59.2388 121.956 60.0602C122.578 60.8625 123.349 61.4546 124.271 61.8367C125.215 62.1996 126.125 62.3811 127 62.3811V66.3639C126.125 66.3639 125.215 66.5454 124.271 66.9083C123.349 67.2521 122.578 67.8252 121.956 68.6275C121.334 69.4298 121.023 70.49 121.023 71.808V80.0888C121.023 81.5024 120.77 82.7154 120.263 83.7278C119.779 84.7593 119.123 85.6094 118.294 86.2779C117.464 86.9656 116.52 87.51 115.461 87.9112C114.401 88.3123 113.319 88.5893 112.213 88.7421C111.107 88.914 110.036 89 109 89Z"
        fill="black"
    />
<path
        d="M20 89C18.908 89 17.7676 88.914 16.5785 88.7421C15.4138 88.5893 14.2854 88.3123 13.1935 87.9112C12.1015 87.51 11.1066 86.9656 10.2088 86.2779C9.31098 85.6094 8.59515 84.7593 8.0613 83.7278C7.55172 82.7154 7.29694 81.5024 7.29694 80.0888V71.808C7.29694 70.49 6.96935 69.4298 6.31418 68.6275C5.659 67.8252 4.84611 67.2521 3.87548 66.9083C2.90485 66.5454 1.94636 66.3639 1 66.3639V62.3811C1.94636 62.3811 2.90485 62.1996 3.87548 61.8367C4.84611 61.4546 5.659 60.8625 6.31418 60.0602C6.96935 59.2388 7.29694 58.1786 7.29694 56.8797V47.9112C7.29694 46.4594 7.56386 45.2178 8.0977 44.1862C8.63155 43.1547 9.34738 42.3047 10.2452 41.6361C11.143 40.9675 12.1379 40.4422 13.2299 40.0602C14.3218 39.6781 15.4502 39.4107 16.6149 39.2579C17.804 39.086 18.9323 39 20 39V42.8968C19.4419 42.8968 18.7867 42.9733 18.0345 43.1261C17.2822 43.2598 16.5543 43.5272 15.8506 43.9284C15.1469 44.3104 14.5645 44.8739 14.1034 45.6189C13.6424 46.3639 13.4119 47.3477 13.4119 48.5702V58.1691C13.4119 59.2006 13.2178 60.0793 12.8295 60.8052C12.4655 61.5119 11.9802 62.0946 11.3736 62.553C10.7669 62.9924 10.136 63.3362 9.48084 63.5845C8.84994 63.8138 8.27969 63.9857 7.77012 64.1003C7.26054 64.1958 6.89655 64.2818 6.67816 64.3582C6.89655 64.3773 7.26054 64.4441 7.77012 64.5587C8.27969 64.6734 8.84994 64.8548 9.48084 65.1032C10.136 65.3515 10.7548 65.7049 11.3372 66.1633C11.9438 66.6027 12.4413 67.1853 12.8295 67.9112C13.2178 68.618 13.4119 69.4967 13.4119 70.5473V79.4011C13.4119 80.6046 13.6424 81.5788 14.1034 82.3238C14.5645 83.0879 15.1469 83.6705 15.8506 84.0716C16.5543 84.4728 17.2822 84.7402 18.0345 84.8739C18.7867 85.0267 19.4419 85.1032 20 85.1032V89Z"
        fill="black"
    />
<path
        d="M67 89V39H78.9819V60.6667L94.4629 39H107.929L89.8328 64.037L108 89H94.5336L78.9819 67.3704V89H67Z"
        fill="black"
    />
<path
        d="M21 89V39H52.1202C58.0174 39 61.937 40.5802 63.8791 43.7407C65.8211 46.9012 66.7921 50.679 66.7921 55.0741C66.7921 59.3951 65.7619 63.0247 63.7014 65.963C61.641 68.9012 57.5556 70.3704 51.4452 70.3704H37.2706V89H21ZM50.415 89L39.6863 65.963L55.7438 65.4074L68 89H50.415ZM37.2706 60.1111H46.6848C48.1532 60.1111 49.1597 59.7284 49.7045 58.963C50.2492 58.1728 50.5215 56.9506 50.5215 55.2963C50.5215 53.6173 50.2373 52.3827 49.6689 51.5926C49.1242 50.8025 48.1295 50.4074 46.6848 50.4074H37.2706V60.1111Z"
        fill="#C9406A"
    />
</svg>
